((((((hardcoded Dutch subs))))))

Verenigde Staten
Komedie
102 minuten

geregisseerd door Burr Steers
met Zac Efron, Matthew Perry en Michelle Trachtenberg

Het leven van de 37-jarige Mike O'Donnell is een complete chaos. Het wordt nog een stuk gecompliceerder als hij na een ontmoeting met zijn geestelijke gids weer in het lichaam belandt van de 17-jarige scholier, die hij eens was, wiens leven zelf ook niet bepaald op rolletjes loopt.
 
http://www.moviemeter.nl/film/48230

Format : AVI
Format/Info : Audio Video Interleave
File size : 936 MiB
Duration : 1h 37mn
Overall bit rate : 1 340 Kbps

Video
ID : 0
Format : MPEG-4 Visual
Format profile : Simple@L1
Format settings, BVOP : No
Format settings, QPel : No
Format settings, GMC : No warppoints
Format settings, Matrix : Default (H.263)
Codec ID : DIVX
Codec ID/Info : Project Mayo
Codec ID/Hint : DivX 4
Duration : 1h 37mn
Bit rate : 1 200 Kbps
Width : 720 pixels
Height : 576 pixels
Display aspect ratio : 5/4
Frame rate : 25.000 fps
Standard : PAL
Resolution : 24 bits
Colorimetry : 4:2:0
Scan type : Progressive
Bits/(Pixel*Frame) : 0.116
Stream size : 838 MiB (89%)
Writing library : avc2.0.11.1110

Audio
ID : 1
Format : MPEG Audio
Format version : Version 1
Format profile : Layer 3
Codec ID : 55
Codec ID/Hint : MP3
Duration : 1h 37mn
Bit rate mode : Constant
Bit rate : 128 Kbps
Channel(s) : 2 channels
Sampling rate : 48.0 KHz
Resolution : 16 bits
Stream size : 89.4 MiB (10%)
Alignment : Aligned on interleaves
Interleave, duration : 24 ms (0.60 video frame)
